ffmpeg version 4.4.2-0ubuntu0.22.04.1 Copyright (c) 2000-2021 the FFmpeg developers
  built with gcc 11 (Ubuntu 11.2.0-19ubuntu1)
  configuration: --prefix=/usr --extra-version=0ubuntu0.22.04.1 --toolchain=hardened --libdir=/usr/lib/x86_64-linux-gnu --incdir=/usr/include/x86_64-linux-gnu --arch=amd64 --enable-gpl --disable-stripping --enable-gnutls --enable-ladspa --enable-libaom --enable-libass --enable-libbluray --enable-libbs2b --enable-libcaca --enable-libcdio --enable-libcodec2 --enable-libdav1d --enable-libflite --enable-libfontconfig --enable-libfreetype --enable-libfribidi --enable-libgme --enable-libgsm --enable-libjack --enable-libmp3lame --enable-libmysofa --enable-libopenjpeg --enable-libopenmpt --enable-libopus --enable-libpulse --enable-librabbitmq --enable-librubberband --enable-libshine --enable-libsnappy --enable-libsoxr --enable-libspeex --enable-libsrt --enable-libssh --enable-libtheora --enable-libtwolame --enable-libvidstab --enable-libvorbis --enable-libvpx --enable-libwebp --enable-libx265 --enable-libxml2 --enable-libxvid --enable-libzimg --enable-libzmq --enable-libzvbi --enable-lv2 --enable-omx --enable-openal --enable-opencl --enable-opengl --enable-sdl2 --enable-pocketsphinx --enable-librsvg --enable-libmfx --enable-libdc1394 --enable-libdrm --enable-libiec61883 --enable-chromaprint --enable-frei0r --enable-libx264 --enable-shared
  libavutil      56. 70.100 / 56. 70.100
  libavcodec     58.134.100 / 58.134.100
  libavformat    58. 76.100 / 58. 76.100
  libavdevice    58. 13.100 / 58. 13.100
  libavfilter     7.110.100 /  7.110.100
  libswscale      5.  9.100 /  5.  9.100
  libswresample   3.  9.100 /  3.  9.100
  libpostproc    55.  9.100 / 55.  9.100
Input #0, mov,mp4,m4a,3gp,3g2,mj2, from 'demopresentatiuon.mp4':
  Metadata:
    major_brand     : isom
    minor_version   : 512
    compatible_brands: isomiso2avc1mp41
    creation_time   : 2026-07-13T15:09:04.000000Z
    Hw              : 1
    bitrate         : 12000000
    com.apple.quicktime.artwork: {"data":{"editType":"default","infoStickerId":"","is_ai_lyric":0,"is_aimusic_mv":0,"is_use_ai_image_generation":0,"is_use_ai_video_generation":0,"is_use_aimusic_bgm":0,"is_use_aimusic_vocal":0,"is_use_graph_chart":0,"is_use_jichuang_mode_in_ai_writer":0,"
    maxrate         : 0
    te_is_reencode  : 1
    encoder         : Lavf61.1.100
  Duration: 00:13:29.38, start: 0.000000, bitrate: 5857 kb/s
  Stream #0:0(und): Video: h264 (Main) (avc1 / 0x31637661), yuv420p(tv, bt709), 2634x1080 [SAR 1:1 DAR 439:180], 5824 kb/s, 30 fps, 30 tbr, 30 tbn, 60 tbc (default)
    Metadata:
      creation_time   : 2026-07-13T15:09:04.000000Z
      handler_name    : VideoHandler
      vendor_id       : [0][0][0][0]
  Stream #0:1(und): Audio: aac (LC) (mp4a / 0x6134706D), 44100 Hz, stereo, fltp, 28 kb/s (default)
    Metadata:
      creation_time   : 2026-07-13T15:09:04.000000Z
      handler_name    : SoundHandler
      vendor_id       : [0][0][0][0]
Stream mapping:
  Stream #0:0 -> #0:0 (h264 (native) -> h264 (libx264))
  Stream #0:1 -> #0:1 (aac (native) -> aac (native))
Press [q] to stop, [?] for help
[libx264 @ 0x60b46937bd80] using SAR=1/1
[libx264 @ 0x60b46937bd80] using cpu capabilities: MMX2 SSE2Fast SSSE3 SSE4.2 AVX FMA3 BMI2 AVX2
[libx264 @ 0x60b46937bd80] profile High, level 3.2, 4:2:0, 8-bit
[libx264 @ 0x60b46937bd80] 264 - core 163 r3060 5db6aa6 - H.264/MPEG-4 AVC codec - Copyleft 2003-2021 - http://www.videolan.org/x264.html - options: cabac=1 ref=1 deblock=1:0:0 analyse=0x3:0x113 me=hex subme=2 psy=1 psy_rd=1.00:0.00 mixed_ref=0 me_range=16 chroma_me=1 trellis=0 8x8dct=1 cqm=0 deadzone=21,11 fast_pskip=1 chroma_qp_offset=0 threads=3 lookahead_threads=1 sliced_threads=0 nr=0 decimate=1 interlaced=0 bluray_compat=0 constrained_intra=0 bframes=3 b_pyramid=2 b_adapt=1 b_bias=0 direct=1 weightb=1 open_gop=0 weightp=1 keyint=250 keyint_min=25 scenecut=40 intra_refresh=0 rc_lookahead=10 rc=crf mbtree=1 crf=30.0 qcomp=0.60 qpmin=0 qpmax=69 qpstep=4 ip_ratio=1.40 aq=1:1.00
Output #0, mp4, to 'demo_small.mp4':
  Metadata:
    major_brand     : isom
    minor_version   : 512
    compatible_brands: isomiso2avc1mp41
    te_is_reencode  : 1
    Hw              : 1
    bitrate         : 12000000
    com.apple.quicktime.artwork: {"data":{"editType":"default","infoStickerId":"","is_ai_lyric":0,"is_aimusic_mv":0,"is_use_ai_image_generation":0,"is_use_ai_video_generation":0,"is_use_aimusic_bgm":0,"is_use_aimusic_vocal":0,"is_use_graph_chart":0,"is_use_jichuang_mode_in_ai_writer":0,"
    maxrate         : 0
    encoder         : Lavf58.76.100
  Stream #0:0(und): Video: h264 (avc1 / 0x31637661), yuv420p(tv, bt709, progressive), 1756x720 [SAR 1:1 DAR 439:180], q=2-31, 30 fps, 15360 tbn (default)
    Metadata:
      creation_time   : 2026-07-13T15:09:04.000000Z
      handler_name    : VideoHandler
      vendor_id       : [0][0][0][0]
      encoder         : Lavc58.134.100 libx264
    Side data:
      cpb: bitrate max/min/avg: 0/0/0 buffer size: 0 vbv_delay: N/A
  Stream #0:1(und): Audio: aac (LC) (mp4a / 0x6134706D), 44100 Hz, stereo, fltp, 96 kb/s (default)
    Metadata:
      creation_time   : 2026-07-13T15:09:04.000000Z
      handler_name    : SoundHandler
      vendor_id       : [0][0][0][0]
      encoder         : Lavc58.134.100 aac
frame=    1 fps=0.0 q=0.0 size=       0kB time=00:00:00.99 bitrate=   0.4kbits/s speed=8.91x    frame=    1 fps=0.0 q=0.0 size=       0kB time=00:00:01.02 bitrate=   0.4kbits/s speed=1.56x    frame=   31 fps= 27 q=36.0 size=       0kB time=00:00:02.04 bitrate=   0.2kbits/s speed=1.76x    frame=   59 fps= 35 q=36.0 size=       0kB time=00:00:02.97 bitrate=   0.1kbits/s speed=1.78x    frame=   89 fps= 41 q=36.0 size=       0kB time=00:00:03.97 bitrate=   0.1kbits/s speed=1.83x    